<svg id="Capa_2" data-name="Capa 2" xmlns="http://www.w3.org/2000/svg" viewBox="0 0 639.63 482.84">
  <defs></defs>
  <g id="Capa_2-2" data-name="Capa 2">
    <g>
      <path fill="#ffffff" d="m378.26,235.24h-11.58c-.35,0-.69,0-1.02-.02l22.33,62.44h-207.24L106.39,89.69h170.45l-4.15-11.87H89.52l82.85,231.73h232.45l-26.57-74.31Z"></path>
      <path fill="#ffffff" d="m300.01,217.86l-77.64-25.85,6.87-3.14c15.21-6.95,31.38-14.12,52.14-23.12l-9.9-27.69-74.71,38.22,10.45,29.22c19.45,7.41,39.23,14.77,58.38,21.89,14.29,5.33,29.02,10.8,43.64,16.31l-9.24-25.85Z"></path>
      <path fill="#9641FA" d="m326.64,186.94l-50.51-144.79C268.95,21.54,284.25,0,306.08,0h140.35c20.87,0,39.46,13.2,46.34,32.91l50.51,144.79c7.19,20.61-8.11,42.15-29.94,42.15h-140.35c-20.87,0-39.46-13.2-46.34-32.91Z"></path>
      <path fill="#ffffff" d="m462.95,95.02l-95.4-45.85c-10.24-4.92-21.32,4.98-17.58,15.71l31.99,91.69c2.81,8.07,12.61,11.15,19.53,6.14l63.41-45.85c7.84-5.67,6.77-17.66-1.95-21.85Z"></path>
      <g>
        <path fill="#9641FA" d="m0,481.18v-93.84h60.72v16.56H19.04v21.94h33.4v16.28H19.04v22.49h41.68v16.56H0Z"></path>
        <path fill="#9641FA" d="m75.62,481.18v-96.6h18.49v96.6h-18.49Z"></path>
        <path fill="#9641FA" d="m113.71,481.18v-93.84h59.89v16.56h-40.85v27.6h33.4v16.56h-33.4v33.12h-19.04Z"></path>
        <path fill="#9641FA" d="m182.99,481.18v-69h18.35v7.31c7.73-4.6,15.09-7.59,22.08-8.97v18.63c-7.45,1.57-13.85,3.17-19.18,4.83l-2.76.97v46.23h-18.49Z"></path>
        <path fill="#9641FA" d="m238.05,419.98c4.88-6.3,13.02-9.45,24.43-9.45s19.55,3.15,24.43,9.45c4.88,6.3,7.31,15.16,7.31,26.57,0,24.2-10.58,36.29-31.74,36.29s-31.74-12.1-31.74-36.29c0-11.41,2.44-20.26,7.31-26.57Zm14.28,42.16c1.88,3.31,5.27,4.97,10.14,4.97s8.26-1.66,10.14-4.97c1.88-3.31,2.83-8.51,2.83-15.59s-.94-12.23-2.83-15.46c-1.89-3.22-5.27-4.83-10.14-4.83s-8.26,1.61-10.14,4.83c-1.89,3.22-2.83,8.37-2.83,15.46s.94,12.28,2.83,15.59Z"></path>
        <path fill="#9641FA" d="m326.23,481.18h-18.49v-69h18.35v3.86c6.25-3.68,12.01-5.52,17.25-5.52,9.2,0,15.55,2.71,19.04,8.14,3.5,5.43,5.24,13.8,5.24,25.12v37.4h-18.49v-36.85c0-5.89-.69-10.23-2.07-13.04-1.38-2.81-4.14-4.21-8.28-4.21-3.77,0-7.41.64-10.9,1.93l-1.66.55v51.61Z"></path>
        <path fill="#9641FA" d="m422.28,427.91h-16.97v28.29c0,2.76.07,4.72.21,5.87.14,1.15.64,2.14,1.52,2.97.87.83,2.23,1.24,4.07,1.24l10.49-.28.83,14.77c-6.17,1.38-10.86,2.07-14.08,2.07-8.28,0-13.94-1.86-16.97-5.59-3.04-3.73-4.55-10.6-4.55-20.63v-28.7h-8.14v-15.73h8.14v-19.18h18.49v19.18h16.97v15.73Z"></path>
        <path fill="#9641FA" d="m452.85,463.72c2.16,1.89,5.27,2.83,9.32,2.83,8.56,0,16.19-.28,22.91-.83l3.86-.41.28,13.66c-10.58,2.57-20.15,3.86-28.71,3.86-10.4,0-17.94-2.76-22.63-8.28-4.69-5.52-7.04-14.49-7.04-26.91,0-24.75,10.16-37.12,30.5-37.12s30.08,10.4,30.08,31.19l-1.38,12.83h-40.57c.09,4.23,1.22,7.29,3.38,9.18Zm20.36-23.25c0-5.52-.88-9.36-2.62-11.52-1.75-2.16-4.81-3.24-9.18-3.24s-7.45,1.13-9.25,3.38c-1.79,2.26-2.74,6.05-2.83,11.38h23.87Z"></path>
        <path fill="#9641FA" d="m523.16,481.18h-18.49v-69h18.35v3.86c6.26-3.68,12.01-5.52,17.25-5.52,9.2,0,15.55,2.71,19.04,8.14,3.5,5.43,5.24,13.8,5.24,25.12v37.4h-18.49v-36.85c0-5.89-.69-10.23-2.07-13.04-1.38-2.81-4.14-4.21-8.28-4.21-3.77,0-7.41.64-10.9,1.93l-1.66.55v51.61Z"></path>
        <path fill="#9641FA" d="m639.63,384.58v96.6h-18.35v-2.9c-6.44,3.04-12.01,4.55-16.7,4.55-10.03,0-17.02-2.9-20.98-8.69-3.96-5.8-5.93-14.97-5.93-27.53s2.37-21.71,7.11-27.46c4.74-5.75,11.89-8.62,21.46-8.62,2.94,0,7.04.46,12.28,1.38l2.62.55v-27.88h18.49Zm-20.42,80.04l1.93-.41v-36.29c-5.06-.92-9.57-1.38-13.52-1.38-7.45,0-11.18,6.62-11.18,19.87,0,7.18.83,12.28,2.48,15.32s4.39,4.55,8.21,4.55,7.84-.55,12.08-1.66Z"></path>
      </g>
    </g>
  </g>
</svg>