<svg id="Capa_2" data-name="Capa 2" xmlns="http://www.w3.org/2000/svg" viewBox="0 0 712.34 537.73">
  <defs></defs>
  <g id="Capa_2-2" data-name="Capa 2">
    <g>
      <g>
        <g>
          <polygon fill="#002323" points="450.85 344.74 191.98 344.74 99.7 86.67 358.6 86.67 450.85 344.74"></polygon>
          <path fill="#ffffff" d="m334.11,242.62l-86.46-28.79,7.65-3.49c16.94-7.74,34.95-15.73,58.06-25.75l-11.04-30.84-83.18,42.56,11.64,32.54c21.64,8.25,43.69,16.45,65.01,24.38,15.92,5.93,32.31,12.02,48.6,18.17l-10.29-28.79Z"></path>
        </g>
        <g>
          <path fill="#002323" d="m598.85,244.34c-7.97,11.22-20.43,17.64-34.17,17.64h-156.32c-26.03,0-49.27-16.5-57.85-41.09l-56.24-161.23c-4.53-12.99-2.56-26.87,5.41-38.09,7.95-11.22,20.41-17.66,34.17-17.66h156.3c26.03,0,49.29,16.52,57.85,41.09l56.25,161.25c4.53,12.99,2.56,26.87-5.41,38.09Z"></path>
          <path fill="#9641FA" d="m363.78,208.19l-56.25-161.25C299.52,23.99,316.56,0,340.87,0h156.31c23.25,0,43.95,14.71,51.61,36.66l56.25,161.25c8.01,22.95-9.03,46.94-33.34,46.94h-156.31c-23.25,0-43.95-14.71-51.61-36.66Z"></path>
          <path fill="#ffffff" d="m515.58,105.82l-106.25-51.06c-11.4-5.48-23.75,5.55-19.58,17.5l35.62,102.12c3.13,8.99,14.04,12.41,21.75,6.84l70.62-51.06c8.73-6.31,7.54-19.67-2.17-24.33Z"></path>
        </g>
      </g>
      <g>
        <path fill="#9641FA" d="m0,535.88v-104.51h67.62v18.44H21.21v24.44h37.19v18.14H21.21v25.05h46.41v18.44H0Z"></path>
        <path fill="#9641FA" d="m84.22,535.88v-107.58h20.59v107.58h-20.59Z"></path>
        <path fill="#9641FA" d="m126.64,535.88v-104.51h66.7v18.44h-45.49v30.74h37.19v18.44h-37.19v36.89h-21.21Z"></path>
        <path fill="#9641FA" d="m203.79,535.88v-76.84h20.44v8.15c8.61-5.12,16.8-8.45,24.59-9.99v20.75c-8.3,1.74-15.42,3.54-21.36,5.38l-3.07,1.08v51.49h-20.59Z"></path>
        <path fill="#9641FA" d="m265.11,467.72c5.43-7.02,14.5-10.53,27.2-10.53s21.77,3.51,27.2,10.53c5.43,7.02,8.15,16.88,8.15,29.58,0,26.95-11.78,40.42-35.35,40.42s-35.35-13.47-35.35-40.42c0-12.7,2.71-22.57,8.15-29.58Zm15.91,46.95c2.1,3.69,5.86,5.53,11.3,5.53s9.2-1.84,11.3-5.53c2.1-3.69,3.15-9.48,3.15-17.37s-1.05-13.63-3.15-17.21c-2.1-3.59-5.87-5.38-11.3-5.38s-9.2,1.79-11.3,5.38c-2.1,3.59-3.15,9.32-3.15,17.21s1.05,13.68,3.15,17.37Z"></path>
        <path fill="#9641FA" d="m363.32,535.88h-20.59v-76.84h20.44v4.3c6.97-4.1,13.37-6.15,19.21-6.15,10.24,0,17.31,3.02,21.21,9.07,3.89,6.05,5.84,15.37,5.84,27.97v41.65h-20.59v-41.04c0-6.56-.77-11.4-2.31-14.52-1.54-3.12-4.61-4.69-9.22-4.69-4.2,0-8.25.72-12.14,2.15l-1.84.61v57.48Z"></path>
        <path fill="#9641FA" d="m470.28,476.56h-18.9v31.51c0,3.07.08,5.25.23,6.53.15,1.28.72,2.38,1.69,3.3.97.92,2.48,1.38,4.53,1.38l11.68-.31.92,16.45c-6.87,1.54-12.09,2.31-15.68,2.31-9.22,0-15.52-2.08-18.9-6.22-3.38-4.15-5.07-11.81-5.07-22.98v-31.97h-9.07v-17.52h9.07v-21.36h20.59v21.36h18.9v17.52Z"></path>
        <path fill="#9641FA" d="m504.33,516.44c2.41,2.1,5.86,3.15,10.37,3.15,9.53,0,18.03-.31,25.51-.92l4.3-.46.31,15.22c-11.78,2.87-22.44,4.3-31.97,4.3-11.58,0-19.98-3.07-25.21-9.22-5.23-6.15-7.84-16.14-7.84-29.97,0-27.56,11.32-41.34,33.97-41.34s33.5,11.58,33.5,34.73l-1.54,14.29h-45.19c.1,4.71,1.36,8.12,3.77,10.22Zm22.67-25.9c0-6.15-.97-10.42-2.92-12.83-1.95-2.41-5.35-3.61-10.22-3.61s-8.3,1.26-10.3,3.77c-2,2.51-3.05,6.74-3.15,12.68h26.59Z"></path>
        <path fill="#9641FA" d="m582.63,535.88h-20.59v-76.84h20.44v4.3c6.97-4.1,13.37-6.15,19.21-6.15,10.24,0,17.31,3.02,21.21,9.07,3.89,6.05,5.84,15.37,5.84,27.97v41.65h-20.59v-41.04c0-6.56-.77-11.4-2.31-14.52-1.54-3.12-4.61-4.69-9.22-4.69-4.2,0-8.25.72-12.14,2.15l-1.84.61v57.48Z"></path>
        <path fill="#9641FA" d="m712.34,428.3v107.58h-20.44v-3.23c-7.17,3.38-13.37,5.07-18.6,5.07-11.17,0-18.96-3.23-23.36-9.68-4.41-6.46-6.61-16.68-6.61-30.66s2.64-24.18,7.92-30.58c5.28-6.4,13.24-9.61,23.9-9.61,3.28,0,7.84.51,13.68,1.54l2.92.62v-31.05h20.59Zm-22.75,89.14l2.15-.46v-40.42c-5.64-1.02-10.66-1.54-15.06-1.54-8.3,0-12.45,7.38-12.45,22.13,0,7.99.92,13.68,2.77,17.06,1.84,3.38,4.89,5.07,9.14,5.07s8.73-.61,13.45-1.84Z"></path>
      </g>
    </g>
  </g>
</svg>